<?xml version="1.0" encoding="utf-8"?>
<svg version="1.1" x="0px" y="0px" width="750px" height="750px" viewBox="0 0 750 750" enable-background="new 0 0 750 750" xmlns="http://www.w3.org/2000/svg">
  <g id="N-TEXT"/>
  <g id="N-DIMENSIONS"/>
  <g id="_x32_D_x24_AG-DIAGRAM">
    <g id="POLYLINE_234_">
      <g>
        <g>
          <line fill="none" stroke="#E74C3C" stroke-width="3.25" stroke-linecap="round" stroke-linejoin="round" x1="316.871" y1="673.504" x2="318.871" y2="673.504"/>
          <line fill="none" stroke="#E74C3C" stroke-width="3.25" stroke-linecap="round" stroke-linejoin="round" stroke-dasharray="4.0534,7.0935" x1="325.964" y1="673.504" x2="478.475" y2="673.504"/>
          <line fill="none" stroke="#E74C3C" stroke-width="3.25" stroke-linecap="round" stroke-linejoin="round" x1="482.021" y1="673.504" x2="484.021" y2="673.504"/>
        </g>
      </g>
    </g>
  </g>
  <g id="_x32_D_x24_AG-GUIDES"/>
  <g id="_x32_D_x24_AG-DETAILS-DIAGRAM"/>
  <g id="_x32_D_x24_AG-DETAILS">
    <g id="POLYLINE_217_">
      <polygon fill="none" stroke="#E74C3C" stroke-width="2" stroke-linecap="round" stroke-linejoin="round" stroke-miterlimit="10" points="&#10;&#9;&#9;&#9;436.039,253.296 423.925,254.649 426.159,269.808 435.497,269.131 436.918,282.868 426.768,284.154 427.19,287.488 &#10;&#9;&#9;&#9;440.599,285.789 438.504,265.544 429.028,266.231 427.757,257.603 436.412,256.635 &#9;&#9;"/>
    </g>
    <g id="POLYLINE_211_">
      <rect x="418.401" y="255.135" transform="matrix(0.9946 -0.1037 0.1037 0.9946 -25.9252 45.037)" fill="none" stroke="#E74C3C" stroke-width="2" stroke-linecap="round" stroke-linejoin="round" stroke-miterlimit="10" width="3.266" height="33.271"/>
    </g>
  </g>
  <g id="_x32_D_x24_AG-SPORTS">
    <g id="POLYLINE_174_">
      <path fill="none" stroke="#E74C3C" stroke-width="2.75" stroke-linecap="round" stroke-linejoin="round" stroke-miterlimit="10" d=" M379.844,195.386c-5.729-2.199-11.144-5.298-16.279-8.639c-6.349-4.176-12.56-8.963-16.92-15.271 c-4.929-7.157-7.228-16.721-3.619-24.93c2.516-5.794,7.154-10.367,12.047-14.222c5.357-4.161,11.277-7.676,17.472-10.436 c3.746-1.635,7.67-3.064,11.716-3.72c3.01-0.476,6.318-0.489,9.102,0.864c1.979,0.953,3.41,2.505,4.527,4.336 c1.205,1.999,1.982,4.248,2.419,6.535"/>
    </g>
    <g id="POLYLINE_173_">
      <path fill="none" stroke="#E74C3C" stroke-width="2.75" stroke-linecap="round" stroke-linejoin="round" stroke-miterlimit="10" d=" M389.318,642.186c-0.507-4.446-0.952-9.187-0.972-13.641c-0.036-9.17,0.8-18.641,2.032-27.727 c0.729-5.252,2.177-12.224,2.852-17.476c1.605-12.563,0.679-25.95,0.447-38.587c-0.002-1.539,0.093-3.114,0.425-4.621 c0.437-2.071,1.539-4.818,2.222-6.823c0.393-1.178,0.802-2.455,0.936-3.685c0.1-0.931,0.038-1.772-0.11-2.678l-0.241-1.349"/>
    </g>
    <g id="POLYLINE_172_">
      <path fill="none" stroke="#E74C3C" stroke-width="2.75" stroke-linecap="round" stroke-linejoin="round" stroke-miterlimit="10" d=" M364.506,516.354c-0.708,0.634-1.623,1.406-2.068,2.184c-0.425,0.685-0.687,1.369-0.942,2.115 c-0.484,1.458-0.814,3.024-1.096,4.535c-0.616,3.369-1.051,7.334-1.412,10.755c-0.98,10.12-1.481,20.538-0.895,30.692 c0.217,3.688,0.605,7.668,1.06,11.334c1.687,13.27,7.124,45.398,8.698,58.58l0.916,8.672"/>
    </g>
    <g id="POLYLINE_171_">
      <path fill="none" stroke="#E74C3C" stroke-width="2.75" stroke-linecap="round" stroke-linejoin="round" stroke-miterlimit="10" d=" M364.527,474.589c-0.254,9.641-0.076,27.171-0.27,36.846c-0.003,0.929-0.006,1.954,0.049,2.877 c0.057,1.007,0.165,2.036,0.376,3.023c0.242,1.143,0.637,2.266,1.232,3.274c1.067,1.831,2.721,3.254,4.535,4.316 c2.554,1.491,5.428,2.392,8.29,3.081c3.681,0.847,7.489,1.387,11.272,1.307c1.857-0.078,4.062-0.234,5.475-1.535 c0.093-0.089,0.124-0.119,0.124-0.119c0.942-0.972,1.35-2.106,1.763-3.319c0.98-3.113,1.475-6.562,1.976-9.788 c1.117-9.339,4.494-26.252,6.247-35.664"/>
    </g>
    <g id="POLYLINE_170_">
      <path fill="none" stroke="#E74C3C" stroke-width="2.75" stroke-linecap="round" stroke-linejoin="round" stroke-miterlimit="10" d=" M427.554,639.913l0.574-6.92c0.368-4.055,0.97-8.243,1.868-12.212c1.862-8.205,5.849-20.676,8-28.853 c1.266-4.759,2.467-9.856,3.271-14.712c1-5.624,2.131-16.882,2.804-22.661c0.545-5.047,2.137-12.587,3.154-17.63 c0.283-1.538,0.565-3.171,0.69-4.727c0.078-0.949,0.094-2.061-0.068-2.971c-0.218-1.375-0.872-2.585-1.414-3.834"/>
    </g>
    <g id="POLYLINE_169_">
      <path fill="none" stroke="#E74C3C" stroke-width="2.75" stroke-linecap="round" stroke-linejoin="round" stroke-miterlimit="10" d=" M414.064,522.337c-0.815,1.031-1.856,2.17-2.501,3.312c-0.756,1.288-1.288,2.72-1.763,4.132 c-1.359,4.162-2.271,8.609-3.043,12.918c-1.673,9.468-2.396,19.274-2.527,28.883l-0.019,32.868l-0.123,5.877l-1.393,35.688"/>
    </g>
    <g id="POLYLINE_168_">
      <path fill="none" stroke="#E74C3C" stroke-width="2.75" stroke-linecap="round" stroke-linejoin="round" stroke-miterlimit="10" d=" M414.462,479.085c-0.52,6.585-0.379,18.133-0.434,24.857c-0.002,5.216-0.664,11.721-0.179,16.905 c0.214,1.862,0.61,3.987,1.923,5.377c0.794,0.831,1.743,1.278,2.773,1.607c1.181,0.369,2.453,0.558,3.679,0.723 c4.926,0.555,10.477,1.375,15.427,1.329c1.393-0.023,2.809-0.111,4.174-0.402c1.032-0.218,2.163-0.619,2.951-1.299 c0.093-0.08,0.138-0.121,0.138-0.121c0.089-0.083,0.132-0.126,0.132-0.126c0.085-0.086,0.126-0.13,0.126-0.13 c0.081-0.089,0.12-0.135,0.12-0.135c0.974-1.162,1.273-2.57,1.495-4.005c0.789-6.915,0.649-15.043,2.366-21.802 c0.298-1.162,0.672-2.328,1.166-3.422c0.542-1.214,1.24-2.374,1.998-3.464l2.399-3.319c1.398-1.971,2.426-4.197,3.216-6.474 c0.996-2.859,1.698-5.883,2.234-8.861"/>
    </g>
    <g id="POLYLINE_167_">
      <path fill="none" stroke="#E74C3C" stroke-width="2.75" stroke-linecap="round" stroke-linejoin="round" stroke-miterlimit="10" d=" M414.368,673.504l-12.166-0.003c-0.314-0.004-0.727-0.025-1-0.079c-0.082-0.016-0.108-0.022-0.108-0.022 c-0.079-0.019-0.105-0.026-0.105-0.026c-0.077-0.022-0.102-0.03-0.102-0.03c-0.074-0.025-0.099-0.034-0.099-0.034 c-0.072-0.029-0.095-0.039-0.095-0.039c-0.093-0.043-0.115-0.055-0.115-0.055c-0.089-0.05-0.111-0.063-0.111-0.063 c-0.086-0.057-0.107-0.072-0.107-0.072c-0.082-0.064-0.103-0.081-0.103-0.081c-0.079-0.072-0.099-0.091-0.099-0.091 c-0.077-0.08-0.095-0.101-0.095-0.101c-0.074-0.089-0.092-0.112-0.092-0.112c-0.054-0.073-0.071-0.098-0.071-0.098 c-0.052-0.078-0.069-0.105-0.069-0.105c-0.051-0.084-0.068-0.113-0.068-0.113c-0.383-0.706-0.534-1.35-0.704-2.072 c-0.2-0.913-0.33-1.862-0.423-2.792c-0.42-4.392-0.068-8.878,0.486-13.244c0.198-1.439,0.419-3.025,0.743-4.438 c0.183-0.791,0.429-1.673,0.785-2.389c0.103-0.206,0.194-0.356,0.271-0.473c0.048-0.07,0.072-0.105,0.072-0.105 c0.049-0.067,0.074-0.099,0.074-0.099c0.076-0.093,0.102-0.123,0.102-0.123c0.079-0.085,0.106-0.112,0.106-0.112 c0.082-0.077,0.096-0.089,0.096-0.089c0.084-0.07,0.099-0.081,0.099-0.081c0.087-0.063,0.102-0.072,0.102-0.072 c0.09-0.055,0.105-0.064,0.105-0.064c0.092-0.047,0.108-0.055,0.108-0.055c0.095-0.04,0.111-0.046,0.111-0.046 c0.081-0.028,0.097-0.033,0.097-0.033c0.083-0.023,0.1-0.027,0.1-0.027c0.085-0.018,0.102-0.022,0.102-0.022 c0.069-0.011,0.104-0.016,0.104-0.016c0.07-0.008,0.106-0.011,0.106-0.011c0.072-0.005,0.108-0.006,0.108-0.006 c0.073-0.002,0.11-0.002,0.11-0.002c0.074,0.002,0.112,0.003,0.112,0.003c0.578,0.035,1.019,0.17,1.512,0.315 c1.24,0.393,2.606,0.897,3.919,0.884c2.751,0.001,5.271-1.361,7.608-2.679c0,0,4.476-2.644,4.476-2.644 c1.72-0.956,3.566-2.05,5.562-2.207c2.484-0.181,4.207,1.769,5.568,3.516c2.66,3.436,4.394,7.88,7.679,10.813 c1.362,1.208,2.98,2.108,4.678,2.751c4.233,1.596,8.992,1.791,13.405,2.623c1.803,0.353,3.855,0.829,5.201,2.13 c0.863,0.848,1.266,1.802,1.561,2.902c0.316,1.242,0.428,2.538,0.376,3.818c-0.048,1.079-0.23,2.259-0.702,3.224 c-0.047,0.091-0.071,0.135-0.071,0.135c-0.049,0.087-0.074,0.129-0.074,0.129c-0.051,0.083-0.078,0.123-0.078,0.123 c-0.054,0.079-0.081,0.117-0.081,0.117c-0.056,0.075-0.084,0.112-0.084,0.112c-0.058,0.071-0.088,0.106-0.088,0.106 c-0.061,0.068-0.091,0.101-0.091,0.101c-0.063,0.064-0.095,0.095-0.095,0.095c-0.065,0.061-0.098,0.09-0.098,0.09 c-0.067,0.057-0.102,0.085-0.102,0.085c-0.07,0.054-0.105,0.081-0.105,0.081c-0.072,0.051-0.109,0.076-0.109,0.076 c-0.074,0.048-0.112,0.071-0.112,0.071c-0.076,0.045-0.115,0.067-0.115,0.067c-0.079,0.042-0.119,0.063-0.119,0.063 c-0.081,0.039-0.122,0.059-0.122,0.059c-0.083,0.037-0.125,0.055-0.125,0.055c-0.166,0.069-0.313,0.115-0.396,0.141 c-0.814,0.24-1.591,0.286-2.424,0.319c-0.161,0.006-0.601,0.013-0.768,0.016C458.319,673.501,414.368,673.504,414.368,673.504z"/>
    </g>
    <g id="POLYLINE_166_">
      <path fill="none" stroke="#E74C3C" stroke-width="2.75" stroke-linecap="round" stroke-linejoin="round" stroke-miterlimit="10" d=" M387.67,640.18c-1.682-1.639-3.815-2.807-6.082-3.406c-1.557-0.41-3.324-0.529-4.845,0.034c-1.723,0.622-3.057,1.945-4.225,3.265 c-1.518,1.731-2.862,3.643-4.036,5.623c-1.807,3.057-3.224,6.361-4.188,9.779c-0.841,3.01-1.353,6.157-1.207,9.289 c0.064,1.286,0.238,2.582,0.603,3.819c0.29,0.995,0.771,2.058,1.426,2.828c0.081,0.094,0.122,0.139,0.122,0.139 c0.084,0.089,0.126,0.133,0.126,0.133c0.086,0.085,0.13,0.127,0.13,0.127c0.088,0.081,0.133,0.121,0.133,0.121 c0.091,0.077,0.137,0.115,0.137,0.115c1.555,1.227,3.523,1.338,5.407,1.427c3.043,0.01,16.912,0.137,19.791-0.078 c0.896-0.085,1.845-0.286,2.555-0.739c0.095-0.061,0.127-0.083,0.127-0.083c0.093-0.065,0.123-0.088,0.123-0.088 c0.09-0.07,0.12-0.093,0.12-0.093c0.088-0.074,0.116-0.099,0.116-0.099c0.085-0.078,0.113-0.105,0.113-0.105 c0.082-0.083,0.109-0.112,0.109-0.112c0.079-0.088,0.105-0.118,0.105-0.118c0.728-0.882,0.953-1.862,1.103-2.927 c0.154-1.247,0.111-2.532,0.017-3.783c-0.299-3.519-0.98-7.073-1.742-10.519c-0.708-3.052-1.469-6.18-2.622-9.099 C390.286,643.635,389.22,641.695,387.67,640.18z"/>
    </g>
    <g id="POLYLINE_165_">
      <path fill="none" stroke="#E74C3C" stroke-width="2.75" stroke-linecap="round" stroke-linejoin="round" stroke-miterlimit="10" d=" M422.408,475.599c3.383,0.675,6.998,1.329,10.427,1.578c6.575,0.479,13.288,0.316,19.863-0.107 c3.303-0.248,6.753-0.537,10.003-1.183c1.912-0.411,3.988-0.959,5.491-2.254c0.095-0.086,0.141-0.129,0.141-0.129 c0.091-0.088,0.135-0.133,0.135-0.133c0.086-0.091,0.129-0.137,0.129-0.137c0.082-0.093,0.122-0.14,0.122-0.14 c0.072-0.088,0.106-0.132,0.106-0.132c0.068-0.09,0.101-0.135,0.101-0.135c0.065-0.092,0.096-0.139,0.096-0.139 c0.856-1.312,1.006-2.819,1.091-4.329c-0.1-20.96-0.376-54.169-1.328-74.866c-0.195-4.444-0.689-9.731-1.196-14.161"/>
    </g>
    <g id="POLYLINE_164_">
      <path fill="none" stroke="#E74C3C" stroke-width="2.75" stroke-linecap="round" stroke-linejoin="round" stroke-miterlimit="10" d=" M360.073,388.225c-1.881,14.059-2.718,28.66-2.617,42.847c0.065,8.531,0.304,17.801,1.054,26.284 c0.328,3.325,0.659,6.868,1.429,10.117c0.424,1.742,1.019,3.566,2.08,5.02c1.085,1.528,2.713,2.36,4.445,2.788 c1.036,0.267,2.133,0.427,3.195,0.555c5.504,0.536,28.459,2.582,33.685,2.918c3.082,0.186,6.61,0.381,9.692,0.358 c1.45-0.019,2.998-0.056,4.436-0.256c1.171-0.159,2.497-0.48,3.412-1.191c0.093-0.073,0.123-0.098,0.123-0.098 c0.089-0.076,0.118-0.102,0.118-0.102c0.086-0.079,0.113-0.106,0.113-0.106c0.082-0.082,0.109-0.11,0.109-0.11 c0.079-0.085,0.105-0.113,0.105-0.113c0.824-0.955,1.2-2.034,1.539-3.203c1.076-4.204,1.674-11.242,2.287-15.63 c1.073-9.682,1.944-19.654,1.42-29.393"/>
    </g>
    <g id="POLYLINE_163_">
      <path fill="none" stroke="#E74C3C" stroke-width="2.75" stroke-linecap="round" stroke-linejoin="round" stroke-miterlimit="10" d=" M478.298,204.586c6.078-5.853,12.398-12.07,17.763-18.572c3.903-4.702,9.135-11.597,13.718-15.564 c3.812-3.348,8.336-7.097,11.479-11.037c6.756-8.284,12.867-19.855,18.282-29.136c2.432-4.091,4.949-8.357,8.233-11.826 c1.889-2.024,4.45-3.682,6.57-5.449c1.175-0.983,2.235-2.123,3.058-3.419c1.627-2.532,2.648-5.464,3.631-8.294 c1.937-5.733,4.003-12.035,6.967-17.315c0.888-1.633,2.399-4.106,3.164-5.762c0.542-1.136,1.055-2.455,1.216-3.684 c0.148-1.044,0.014-2.059-0.373-2.964c-0.523-1.218-1.345-2.143-2.355-2.922c-2.515-1.93-5.899-2.381-8.954-1.777 c-1.159,0.232-2.307,0.613-3.32,1.23c-1.847,1.124-2.842,3.12-4.099,4.765c-1.993,2.72-6.498,7.307-8.792,9.855 c-1.818,2.028-3.664,4.178-5.225,6.408c-0.979,1.405-1.891,2.893-2.558,4.474c-0.772,1.814-1.203,3.767-1.44,5.719 c-0.275,2.13-0.329,4.585-0.889,6.663c-0.492,1.844-1.387,3.563-2.414,5.163c-1.301,2.024-3.081,4.275-4.543,6.196 c-3.048,3.94-6.384,7.941-9.857,11.51c-4.479,4.75-12.965,11.59-17.98,15.894c-2.948,2.58-5.94,5.306-8.444,8.321 c-2.491,2.921-5.208,7.455-7.295,10.717c-3.34,5.256-7.917,9.639-12.52,13.782"/>
    </g>
    <g id="POLYLINE_144_">
      <path fill="none" stroke="#E74C3C" stroke-width="2.75" stroke-linecap="round" stroke-linejoin="round" stroke-miterlimit="10" d=" M302.087,249.503c0.817,1.31,1.64,3.023,2.678,4.145c1.348,1.54,3.166,2.27,5.085,2.718c8.432,1.826,17.921,0.716,25.931,4.355 c4.97,2.194,9.011,6.004,12.565,10.034c3.875,4.403,7.477,9.162,10.625,14.112c5.204,8.312,9.726,17.627,9.981,27.603 c0.31,8.935-2.666,18.483-4.52,27.155c-2.916,12.887-3.633,28.345-6.205,41.234c-0.337,2.041-0.739,4.537,0.632,6.261 c0.613,0.768,1.305,1.203,2.103,1.633c0.833,0.432,1.74,0.754,2.641,1.018c2.645,0.756,5.447,1.087,8.183,1.321 c6.66,0.516,13.77,0.388,20.452,0.171c9.123-0.345,18.764-1.096,27.843-2.056c11.217-1.243,22.77-2.724,33.812-5.06 c4.401-1.012,8.914-2.125,12.893-4.324c1.581-0.897,3.176-2.113,4.059-3.71c0.873-1.577,0.971-3.306,0.785-4.998 c-0.213-1.888-0.782-3.754-1.362-5.559c-1.753-5.114-4.865-13.998-6.247-19.033c-1.338-4.741-2.502-9.78-3.325-14.634 c-3.471-21.449-3.645-43.883-3.455-65.582c0.152-7.514,0.426-17.001,0.996-24.466c0.1-1.133,0.229-2.337,0.431-3.456 c0.289-1.633,0.754-3.252,1.449-4.759c0.711-1.558,1.662-3.012,2.704-4.368c1.54-1.992,3.323-3.832,5.227-5.478 c1.371-1.181,2.857-2.293,4.409-3.226c1.639-1.04,3.956-2.028,5.119-3.6c0.057-0.081,0.085-0.123,0.085-0.123 c0.054-0.083,0.081-0.125,0.081-0.125c0.756-1.267,0.778-2.68,0.785-4.089c-0.073-2.774-0.309-5.946-0.215-8.717 c0.098-4.784,0.455-10.584,0.096-15.319c-0.113-1.413-0.292-2.848-0.634-4.225c-0.532-2.229-1.751-4.558-3.676-5.833 c-0.801-0.533-1.624-0.847-2.497-0.939c-0.836-0.088-1.651,0.068-2.369,0.355c-1.32,0.524-2.469,1.562-3.592,2.374 c-1.062,0.789-2.203,1.508-3.409,2.054c-2.58,1.19-7.15,2.4-9.895,3.27c-2.198,0.701-4.437,1.485-6.486,2.551 c-1.739,0.902-3.374,2.066-4.912,3.275c-2.658,2.114-5.553,4.685-8.649,6.1c-2.7,1.271-5.628,2.072-8.544,2.67 c-3.019,0.591-6.15,1.058-9.225,1.202"/>
    </g>
    <g id="POLYLINE_143_">
      <path fill="none" stroke="#E74C3C" stroke-width="2.75" stroke-linecap="round" stroke-linejoin="round" stroke-miterlimit="10" d=" M377.311,206.579c-1.056,0.139-2.273,0.221-3.281,0.551c-1.049,0.33-1.88,0.832-2.768,1.42c-2.405,1.637-4.945,3.763-7.495,5.165 c-1.266,0.71-2.623,1.275-4.015,1.688c-1.86,0.555-3.812,0.864-5.742,1.054c-14.362,1.092-32.221,0.703-46.727,0.511 c-2.388,0.012-5.006,0.033-7.381,0.221c-1.068,0.1-2.289,0.201-3.271,0.595c-0.082,0.036-0.109,0.048-0.109,0.048 c-0.078,0.037-0.103,0.05-0.103,0.05c-0.073,0.039-0.097,0.052-0.097,0.052c-0.091,0.054-0.113,0.068-0.113,0.068 c-0.084,0.057-0.104,0.071-0.104,0.071c-0.077,0.06-0.095,0.075-0.095,0.075c-0.087,0.079-0.103,0.095-0.103,0.095 c-0.077,0.084-0.091,0.101-0.091,0.101c-0.067,0.088-0.079,0.106-0.079,0.106c-0.058,0.093-0.068,0.113-0.068,0.113 c-0.039,0.078-0.048,0.099-0.048,0.099c-0.033,0.082-0.041,0.103-0.041,0.103c-0.027,0.086-0.034,0.108-0.034,0.108 c-0.022,0.089-0.026,0.112-0.026,0.112"/>
    </g>
    <g id="POLYLINE_142_">
      <path fill="none" stroke="#E74C3C" stroke-width="2.75" stroke-linecap="round" stroke-linejoin="round" stroke-miterlimit="10" d=" M296.176,219.154c0.34,0.086,0.781,0.252,1.033,0.391c0.075,0.041,0.111,0.062,0.111,0.062c0.072,0.043,0.107,0.064,0.107,0.064 c0.069,0.044,0.102,0.067,0.102,0.067c0.066,0.046,0.098,0.07,0.098,0.07c0.094,0.073,0.124,0.097,0.124,0.097 c0.089,0.076,0.118,0.102,0.118,0.102c0.084,0.08,0.111,0.108,0.111,0.108c0.08,0.084,0.105,0.113,0.105,0.113 c0.076,0.088,0.1,0.118,0.1,0.118c0.8,1.017,1.318,2.975,1.805,4.147c2.265,5.856,6.099,14.388,7.681,20.372 c0.224,0.956,0.434,2.059,0.292,3.024c-0.014,0.082-0.021,0.122-0.021,0.122c-0.017,0.079-0.025,0.119-0.025,0.119 c-0.019,0.077-0.03,0.115-0.03,0.115c-0.022,0.074-0.034,0.111-0.034,0.111c-0.025,0.072-0.038,0.107-0.038,0.107 c-0.028,0.069-0.043,0.103-0.043,0.103c-0.039,0.083-0.047,0.099-0.047,0.099c-0.052,0.095-0.061,0.11-0.061,0.11 c-0.057,0.09-0.067,0.105-0.067,0.105c-0.062,0.085-0.073,0.099-0.073,0.099c-0.08,0.094-0.092,0.106-0.092,0.106 c-0.086,0.086-0.099,0.098-0.099,0.098c-0.094,0.08-0.107,0.091-0.107,0.091c-0.086,0.064-0.101,0.074-0.101,0.074 c-0.091,0.059-0.123,0.078-0.123,0.078c-0.064,0.037-0.097,0.054-0.097,0.054c-0.067,0.034-0.102,0.05-0.102,0.05 c-0.07,0.031-0.106,0.047-0.106,0.047c-0.073,0.029-0.11,0.043-0.11,0.043c-0.076,0.027-0.114,0.039-0.114,0.039 c-0.079,0.024-0.118,0.036-0.118,0.036c-1.198,0.304-2.369,0.141-3.558-0.053c-2.418-0.443-4.836-1.285-7.148-2.117 c-5.036-1.865-13.722-5.511-18.766-7.112c-3.373-1.102-6.947-2.028-10.431-2.713c-4.071-0.794-8.346-1.305-12.49-1.489 c-3.947-0.166-8.875-0.078-12.812-0.318c-7.43-0.356-14.733-2.349-21.795-4.579l-17.127-5.635 c-2.889-0.912-5.929-1.762-8.902-2.328c-3.576-0.685-8.03-1.226-11.586-2.003c-5.193-1.118-10.438-2.579-15.054-5.272 c-4.173-2.416-7.774-5.796-11.206-9.151c-3.191-3.182-10.064-10.231-13.333-13.128c-0.596-0.561-1.308-1.287-1.731-1.925 c-0.169-0.253-0.287-0.471-0.374-0.656c-0.04-0.089-0.059-0.133-0.059-0.133c-0.036-0.089-0.053-0.134-0.053-0.134 c-0.032-0.09-0.047-0.135-0.047-0.135c-0.028-0.091-0.041-0.137-0.041-0.137c-0.024-0.092-0.035-0.138-0.035-0.138 c-0.02-0.093-0.029-0.139-0.029-0.139c-0.016-0.094-0.023-0.141-0.023-0.141c-0.157-1.262,0.416-2.381,1.061-3.379 c0.859-1.25,2-2.406,3.358-3.022c0.095-0.039,0.142-0.058,0.142-0.058c0.094-0.035,0.14-0.051,0.14-0.051 c0.079-0.026,0.118-0.038,0.118-0.038c0.078-0.022,0.116-0.033,0.116-0.033c0.077-0.019,0.115-0.027,0.115-0.027 c0.076-0.016,0.114-0.023,0.114-0.023c0.076-0.012,0.114-0.018,0.114-0.018c0.075-0.009,0.113-0.013,0.113-0.013 c0.075-0.006,0.112-0.008,0.112-0.008c0.074-0.003,0.111-0.004,0.111-0.004c0.074,0,0.111,0.001,0.111,0.001 c0.074,0.003,0.11,0.005,0.11,0.005c0.073,0.006,0.11,0.01,0.11,0.01c0.073,0.009,0.11,0.014,0.11,0.014 c0.073,0.012,0.109,0.018,0.109,0.018c0.073,0.014,0.109,0.022,0.109,0.022c0.866,0.206,1.504,0.646,2.185,1.111 c1.411,1.012,3.778,2.845,5.193,3.804c3.681,2.54,7.631,4.861,11.962,6.082c3.428,0.972,7.357,1.18,10.868,1.738 c1.645,0.273,3.31,0.644,4.82,1.369c2.026,0.966,3.504,2.6,4.868,4.313c1.265,1.602,2.908,3.911,4.377,5.293 c0.766,0.741,1.624,1.399,2.534,1.954c2.394,1.46,5.136,2.261,7.878,2.759c4.615,0.817,9.436,0.878,14.115,0.869l21.192-0.451 c5.532-0.021,11.24,0.06,16.71,0.905c5.013,0.741,10.734,2.5,15.681,3.651c2.707,0.622,5.518,1.094,8.29,1.301 c5.117,0.432,11.662,0.088,16.795,0.405C294.389,218.831,295.307,218.927,296.176,219.154z"/>
    </g>
    <g id="POLYLINE_141_">
      <path fill="none" stroke="#E74C3C" stroke-width="2.75" stroke-linecap="round" stroke-linejoin="round" stroke-miterlimit="10" d=" M373.104,178.524c2.062,3.052,3.579,6.47,4.842,9.919c0.993,2.722,1.863,5.555,2.057,8.46c0.082,1.294,0.019,2.613-0.278,3.878 c-0.286,1.221-0.795,2.4-1.334,3.529c-0.501,1.073-1.292,2.465-1.533,3.62c-0.017,0.094-0.024,0.141-0.024,0.141 c-0.012,0.092-0.017,0.137-0.017,0.137c-0.007,0.09-0.008,0.112-0.008,0.112c-0.003,0.087-0.003,0.109-0.003,0.109 c0.002,0.085,0.003,0.107,0.003,0.107c0.006,0.083,0.008,0.104,0.008,0.104c0.011,0.081,0.014,0.097,0.014,0.097 c0.019,0.093,0.022,0.108,0.022,0.108c0.025,0.09,0.03,0.105,0.03,0.105c0.031,0.088,0.037,0.102,0.037,0.102 c0.037,0.086,0.043,0.1,0.043,0.1c0.043,0.083,0.05,0.097,0.05,0.097c0.048,0.081,0.065,0.108,0.065,0.108 c0.054,0.079,0.074,0.105,0.074,0.105c0.06,0.077,0.082,0.102,0.082,0.102c0.066,0.075,0.089,0.099,0.089,0.099 c0.072,0.073,0.097,0.097,0.097,0.097c0.078,0.071,0.104,0.094,0.104,0.094c0.083,0.069,0.111,0.092,0.111,0.092 c0.935,0.73,2.758,1.43,3.81,1.953c3.409,1.667,8.972,4.961,12.381,6.626c4.188,2.052,8.588,3.909,13.205,4.71 c2.831,0.468,5.992,0.485,8.453-1.184c2.292-1.562,3.487-4.205,4.054-6.834c0.45-2.19,0.444-4.586-0.36-6.684 c-1.01-2.683-3.17-4.801-4.706-7.173c-0.539-0.838-0.97-1.752-1.302-2.691c-0.681-1.926-1.297-5.235-1.755-7.242 c-0.356-1.736-0.437-3.57,0.098-5.279"/>
    </g>
    <g id="POLYLINE_140_">
      <path fill="none" stroke="#E74C3C" stroke-width="2.75" stroke-linecap="round" stroke-linejoin="round" stroke-miterlimit="10" d=" M381.27,177.61c-0.623,0.394-1.275,0.777-1.958,1.054c-0.752,0.312-1.545,0.479-2.286,0.518c-1.502,0.073-3.009-0.264-4.389-0.844 c-1.982-0.831-3.7-2.25-4.921-4.015c-0.727-1.038-1.324-2.18-1.719-3.386c-0.316-0.978-0.523-2.099-0.332-3.075 c0.018-0.084,0.024-0.111,0.024-0.111c0.02-0.082,0.028-0.109,0.028-0.109c0.023-0.08,0.031-0.106,0.031-0.106 c0.026-0.078,0.035-0.103,0.035-0.103c0.029-0.076,0.039-0.101,0.039-0.101c0.031-0.074,0.042-0.098,0.042-0.098 c0.034-0.071,0.051-0.105,0.051-0.105c0.037-0.068,0.056-0.102,0.056-0.102c0.04-0.066,0.06-0.098,0.06-0.098 c0.065-0.095,0.087-0.125,0.087-0.125c0.07-0.09,0.094-0.119,0.094-0.119c0.075-0.086,0.101-0.113,0.101-0.113 c0.08-0.081,0.108-0.107,0.108-0.107c0.085-0.077,0.115-0.102,0.115-0.102c0.09-0.072,0.121-0.096,0.121-0.096 c0.094-0.068,0.126-0.09,0.126-0.09c1.046-0.683,2.294-0.81,3.435-0.831c1.832-0.022,3.649,0.459,5.389,0.99 c2.161,0.659,4.854,1.55,7.063,1.939c0.848,0.146,1.776,0.271,2.627,0.172c0.095-0.013,0.142-0.02,0.142-0.02 c0.091-0.016,0.136-0.025,0.136-0.025c0.087-0.02,0.13-0.03,0.13-0.03c0.083-0.023,0.103-0.029,0.103-0.029 c0.08-0.026,0.1-0.033,0.1-0.033c0.077-0.029,0.095-0.037,0.095-0.037c0.091-0.041,0.108-0.049,0.108-0.049 c0.085-0.045,0.102-0.054,0.102-0.054c0.095-0.059,0.11-0.07,0.11-0.07c0.087-0.065,0.101-0.077,0.101-0.077 c0.092-0.083,0.104-0.095,0.104-0.095c0.082-0.09,0.093-0.104,0.093-0.104c0.062-0.083,0.071-0.097,0.071-0.097 c0.054-0.088,0.063-0.103,0.063-0.103c0.047-0.093,0.054-0.109,0.054-0.109c0.033-0.081,0.039-0.098,0.039-0.098 c0.028-0.085,0.033-0.102,0.033-0.102c0.022-0.088,0.026-0.106,0.026-0.106c0.017-0.091,0.02-0.11,0.02-0.11 c0.012-0.094,0.014-0.114,0.014-0.114c0.006-0.078,0.007-0.098,0.007-0.098c0.002-0.06,0.002-0.1,0.002-0.1 c-0.001-0.082-0.003-0.123-0.003-0.123c-0.005-0.084-0.009-0.127-0.009-0.127c-0.009-0.086-0.015-0.127-0.015-0.127 c-0.012-0.083-0.019-0.124-0.019-0.124c-0.156-0.8-0.445-1.403-0.769-2.11c-0.526-1.103-1.348-2.652-1.806-3.775 c-0.852-1.956-1.166-4.296-1.527-6.391c-0.167-0.909-0.363-1.842-0.704-2.702c-0.392-0.972-0.905-1.712-1.517-2.504l-1.068-1.34 c-0.647-0.811-1.285-1.808-1.616-2.766c-0.374-1.028-0.432-2.122-0.166-3.107c0.427-1.545,1.388-2.785,2.474-3.914 c2.175-2.198,4.887-3.809,7.658-5.141c2.362-1.113,4.846-2.057,7.392-2.651c1.736-0.386,3.799-0.726,5.384,0.185 c0.827,0.46,1.411,1.012,2.067,1.634c0.889,0.867,1.736,1.826,2.52,2.788c2.166,2.716,4.191,5.663,5.257,9 c0.522,1.556,0.876,3.522,1.753,4.905c0.713,1.117,1.634,1.922,2.639,2.739l2.296,1.796c1.035,0.846,2.234,1.836,2.831,3.009 c0.035,0.074,0.052,0.111,0.052,0.111c0.032,0.074,0.042,0.099,0.042,0.099c0.03,0.076,0.039,0.101,0.039,0.101 c0.026,0.076,0.035,0.101,0.035,0.101c0.023,0.076,0.031,0.101,0.031,0.101c0.02,0.076,0.026,0.101,0.026,0.101 c0.017,0.075,0.022,0.101,0.022,0.101c0.014,0.075,0.018,0.1,0.018,0.1c0.011,0.075,0.014,0.1,0.014,0.1 c0.008,0.075,0.01,0.1,0.01,0.1c0.005,0.075,0.006,0.099,0.006,0.099c0.002,0.074,0.002,0.099,0.002,0.099 c-0.001,0.074-0.002,0.098-0.002,0.098c-0.004,0.073-0.005,0.098-0.005,0.098c-0.007,0.073-0.009,0.097-0.009,0.097 c-0.009,0.073-0.013,0.097-0.013,0.097c-0.012,0.072-0.017,0.096-0.017,0.096c-0.015,0.072-0.02,0.095-0.02,0.095 c-0.024,0.095-0.03,0.118-0.03,0.118c-0.028,0.094-0.036,0.117-0.036,0.117c-0.033,0.093-0.041,0.116-0.041,0.116 c-0.037,0.092-0.047,0.114-0.047,0.114c-0.031,0.068-0.052,0.113-0.052,0.113c-0.045,0.089-0.069,0.133-0.069,0.133 c-0.05,0.088-0.077,0.131-0.077,0.131c-0.055,0.086-0.084,0.129-0.084,0.129c-0.06,0.084-0.091,0.126-0.091,0.126 c-0.065,0.082-0.098,0.123-0.098,0.123c-0.069,0.081-0.105,0.12-0.105,0.12c-0.072,0.077-0.108,0.114-0.108,0.114 c-0.422,0.427-1.013,0.833-1.374,1.185c-0.09,0.092-0.118,0.122-0.118,0.122c-0.078,0.092-0.09,0.107-0.09,0.107 c-0.066,0.092-0.076,0.107-0.076,0.107c-0.053,0.092-0.057,0.1-0.057,0.1c-0.039,0.093-0.042,0.1-0.042,0.1 c-0.024,0.093-0.025,0.101-0.025,0.101c-0.008,0.094-0.007,0.102-0.007,0.102c0.009,0.089,0.01,0.097,0.01,0.097 c0.026,0.094,0.029,0.102,0.029,0.102c0.041,0.095,0.045,0.104,0.045,0.104c0.049,0.087,0.06,0.105,0.06,0.105 c0.061,0.088,0.074,0.106,0.074,0.106c0.071,0.089,0.086,0.107,0.086,0.107c0.063,0.072,0.096,0.108,0.096,0.108 c0.385,0.408,0.9,0.822,1.2,1.165c0.067,0.077,0.098,0.116,0.098,0.116c0.06,0.077,0.075,0.097,0.075,0.097 c0.054,0.077,0.067,0.097,0.067,0.097c0.047,0.077,0.058,0.097,0.058,0.097c0.044,0.087,0.049,0.097,0.049,0.097 c0.033,0.081,0.038,0.096,0.038,0.096c0.025,0.085,0.029,0.099,0.029,0.099c0.017,0.085,0.019,0.099,0.019,0.099 c0.009,0.085,0.01,0.099,0.01,0.099c0.003,0.085,0.003,0.099,0.003,0.099c-0.002,0.084-0.004,0.112-0.004,0.112 c-0.014,0.199-0.07,0.466-0.092,0.606c-0.012,0.08-0.015,0.107-0.015,0.107c-0.009,0.08-0.011,0.106-0.011,0.106 c-0.004,0.092-0.004,0.105-0.004,0.105c0.003,0.09,0.004,0.103,0.004,0.103c0.012,0.089,0.014,0.102,0.014,0.102 c0.022,0.089,0.024,0.097,0.024,0.097c0.034,0.092,0.041,0.108,0.041,0.108c0.045,0.091,0.054,0.106,0.054,0.106 c0.055,0.09,0.065,0.105,0.065,0.105c0.064,0.089,0.086,0.119,0.086,0.119c0.251,0.314,0.545,0.571,0.789,0.833 c0.085,0.093,0.113,0.125,0.113,0.125c0.081,0.095,0.107,0.127,0.107,0.127c0.05,0.065,0.075,0.097,0.075,0.097 c0.058,0.083,0.069,0.099,0.069,0.099c0.052,0.084,0.062,0.102,0.062,0.102c0.046,0.086,0.055,0.104,0.055,0.104 c0.037,0.082,0.046,0.103,0.046,0.103c0.031,0.084,0.038,0.106,0.038,0.106c0.026,0.086,0.032,0.108,0.032,0.108 c0.021,0.088,0.025,0.11,0.025,0.11c0.016,0.089,0.02,0.112,0.02,0.112c0.009,0.068,0.015,0.114,0.015,0.114 c0.009,0.092,0.012,0.139,0.012,0.139c0.022,0.339,0,0.761-0.004,1.089c-0.005,0.305,0.017,0.689,0.071,0.953 c0.017,0.081,0.023,0.108,0.023,0.108c0.02,0.081,0.027,0.108,0.027,0.108c0.363,1.205,1.3,2.173,1.952,3.202 c0.385,0.581,0.705,1.217,0.82,1.837c0.162,0.808,0.018,1.621-0.253,2.313c-0.529,1.301-1.369,2.254-2.349,3.181 c-1.213,1.121-2.608,2.053-4.051,2.85c-3.663,2.011-7.775,3.164-11.921,3.595c-3.823,0.393-7.74,0.206-11.491-0.64"/>
    </g>
  </g>
  <g id="_x32_D_x24_AG-OUTLINE">
    <g id="POLYLINE_14_">
      <path fill="none" stroke="#E74C3C" stroke-width="3.5" stroke-linecap="round" stroke-linejoin="round" stroke-miterlimit="10" d=" M302.087,249.503c-5.022-1.072-13.825-4.936-18.731-6.772c-4.993-1.933-10.207-3.632-15.45-4.733 c-5.381-1.15-10.978-1.774-16.479-1.866c-5.135-0.068-10.854-0.036-15.923-0.803c-5.449-0.781-10.898-2.382-16.147-4.014 c0,0-17.127-5.635-17.127-5.635c-2.889-0.912-5.929-1.762-8.902-2.328c-3.576-0.685-8.03-1.226-11.586-2.003 c-5.193-1.118-10.438-2.579-15.054-5.272c-4.173-2.416-7.774-5.796-11.206-9.151c-3.191-3.182-10.064-10.231-13.333-13.128 c-0.596-0.561-1.308-1.287-1.731-1.925c-0.169-0.253-0.287-0.471-0.374-0.656c-0.04-0.089-0.059-0.133-0.059-0.133 c-0.036-0.089-0.053-0.134-0.053-0.134c-0.032-0.09-0.047-0.135-0.047-0.135c-0.028-0.091-0.041-0.137-0.041-0.137 c-0.024-0.092-0.035-0.138-0.035-0.138c-0.02-0.093-0.029-0.139-0.029-0.139c-0.016-0.094-0.023-0.141-0.023-0.141 c-0.157-1.262,0.416-2.381,1.061-3.379c0.859-1.25,2-2.406,3.358-3.022c0.095-0.039,0.142-0.058,0.142-0.058 c0.094-0.035,0.14-0.051,0.14-0.051c0.079-0.026,0.118-0.038,0.118-0.038c0.078-0.022,0.116-0.033,0.116-0.033 c0.077-0.019,0.115-0.027,0.115-0.027c0.076-0.016,0.114-0.023,0.114-0.023c0.076-0.012,0.114-0.018,0.114-0.018 c0.075-0.009,0.113-0.013,0.113-0.013c0.075-0.006,0.112-0.008,0.112-0.008c0.074-0.003,0.111-0.004,0.111-0.004 c0.074,0,0.111,0.001,0.111,0.001c0.074,0.003,0.11,0.005,0.11,0.005c0.073,0.006,0.11,0.01,0.11,0.01 c0.073,0.009,0.11,0.014,0.11,0.014c0.073,0.012,0.109,0.018,0.109,0.018c0.073,0.014,0.109,0.022,0.109,0.022 c0.866,0.206,1.504,0.646,2.185,1.111c1.411,1.012,3.778,2.845,5.193,3.804c3.681,2.54,7.631,4.861,11.962,6.082 c3.428,0.972,7.357,1.18,10.868,1.738c1.645,0.273,3.31,0.644,4.82,1.369c2.026,0.966,3.504,2.6,4.868,4.313 c1.265,1.602,2.908,3.911,4.377,5.293c0.766,0.741,1.624,1.399,2.534,1.954c2.394,1.46,5.136,2.261,7.878,2.759 c4.615,0.817,9.436,0.878,14.115,0.869l21.192-0.451c5.243-0.022,10.676,0.055,15.87,0.78c5.07,0.674,10.813,2.397,15.796,3.607 c2.691,0.64,5.482,1.156,8.238,1.404c3.958,0.397,10.491,0.297,14.522,0.346c1.669,0.041,3.426,0.076,5.07,0.371 c0.02-0.091,0.025-0.113,0.025-0.113c0.025-0.087,0.032-0.108,0.032-0.108c0.031-0.083,0.039-0.104,0.039-0.104 c0.037-0.08,0.047-0.099,0.047-0.099c0.054-0.095,0.066-0.114,0.066-0.114c0.064-0.09,0.078-0.107,0.078-0.107 c0.073-0.085,0.089-0.102,0.089-0.102c0.083-0.08,0.101-0.096,0.101-0.096c0.094-0.076,0.113-0.091,0.113-0.091 c0.082-0.057,0.104-0.071,0.104-0.071c0.09-0.055,0.113-0.068,0.113-0.068c0.072-0.039,0.097-0.052,0.097-0.052 c0.076-0.038,0.103-0.05,0.103-0.05c1.109-0.466,2.219-0.523,3.38-0.642c2.374-0.188,4.996-0.209,7.381-0.221 c14.539,0.198,32.349,0.574,46.727-0.511c1.93-0.19,3.882-0.499,5.742-1.054c1.392-0.412,2.748-0.978,4.015-1.688 c2.547-1.4,5.092-3.529,7.495-5.165c0.793-0.534,1.74-1.089,2.626-1.374c1.094-0.378,2.29-0.448,3.423-0.597 c0.074-0.173,0.2-0.446,0.28-0.618c0.819-1.704,1.77-3.484,2.171-5.34c0.374-1.717,0.331-3.504,0.082-5.235 c-5.729-2.199-11.144-5.298-16.279-8.639c-6.349-4.176-12.56-8.963-16.92-15.271c-4.929-7.157-7.228-16.721-3.619-24.93 c2.516-5.794,7.154-10.367,12.047-14.222c5.357-4.161,11.277-7.676,17.472-10.436c3.746-1.635,7.67-3.064,11.716-3.72 c3.01-0.476,6.318-0.489,9.102,0.864c1.979,0.953,3.41,2.505,4.527,4.336c1.205,1.999,1.982,4.248,2.419,6.535 c0.773,0.357,1.333,0.825,1.934,1.363c0.678,0.619,1.341,1.317,1.95,2.004c1.814,2.071,3.462,4.325,4.792,6.739 c0.721,1.304,1.283,2.709,1.703,4.138c0.406,1.338,0.795,3.087,1.548,4.248c0.71,1.117,1.636,1.922,2.639,2.739l2.296,1.796 c1.035,0.846,2.234,1.836,2.831,3.009c0.035,0.074,0.052,0.111,0.052,0.111c0.032,0.074,0.042,0.099,0.042,0.099 c0.03,0.076,0.039,0.101,0.039,0.101c0.026,0.076,0.035,0.101,0.035,0.101c0.023,0.076,0.031,0.101,0.031,0.101 c0.02,0.076,0.026,0.101,0.026,0.101c0.017,0.075,0.022,0.101,0.022,0.101c0.014,0.075,0.018,0.1,0.018,0.1 c0.011,0.075,0.014,0.1,0.014,0.1c0.008,0.075,0.01,0.1,0.01,0.1c0.005,0.075,0.006,0.099,0.006,0.099 c0.002,0.074,0.002,0.099,0.002,0.099c-0.001,0.074-0.002,0.098-0.002,0.098c-0.004,0.073-0.005,0.098-0.005,0.098 c-0.007,0.073-0.009,0.097-0.009,0.097c-0.009,0.073-0.013,0.097-0.013,0.097c-0.012,0.072-0.017,0.096-0.017,0.096 c-0.015,0.072-0.02,0.095-0.02,0.095c-0.024,0.095-0.03,0.118-0.03,0.118c-0.028,0.094-0.036,0.117-0.036,0.117 c-0.033,0.093-0.041,0.116-0.041,0.116c-0.037,0.092-0.047,0.114-0.047,0.114c-0.031,0.068-0.052,0.113-0.052,0.113 c-0.045,0.089-0.069,0.133-0.069,0.133c-0.05,0.088-0.077,0.131-0.077,0.131c-0.055,0.086-0.084,0.129-0.084,0.129 c-0.06,0.084-0.091,0.126-0.091,0.126c-0.065,0.082-0.098,0.123-0.098,0.123c-0.069,0.081-0.105,0.12-0.105,0.12 c-0.072,0.077-0.108,0.114-0.108,0.114c-0.422,0.427-1.013,0.833-1.374,1.185c-0.09,0.092-0.118,0.122-0.118,0.122 c-0.078,0.092-0.09,0.107-0.09,0.107c-0.066,0.092-0.076,0.107-0.076,0.107c-0.053,0.092-0.057,0.1-0.057,0.1 c-0.039,0.093-0.042,0.1-0.042,0.1c-0.024,0.093-0.025,0.101-0.025,0.101c-0.008,0.094-0.007,0.102-0.007,0.102 c0.009,0.089,0.01,0.097,0.01,0.097c0.026,0.094,0.029,0.102,0.029,0.102c0.041,0.095,0.045,0.104,0.045,0.104 c0.049,0.087,0.06,0.105,0.06,0.105c0.061,0.088,0.074,0.106,0.074,0.106c0.071,0.089,0.086,0.107,0.086,0.107 c0.063,0.072,0.096,0.108,0.096,0.108c0.385,0.408,0.9,0.822,1.2,1.165c0.067,0.077,0.098,0.116,0.098,0.116 c0.06,0.077,0.075,0.097,0.075,0.097c0.054,0.077,0.067,0.097,0.067,0.097c0.047,0.077,0.058,0.097,0.058,0.097 c0.044,0.087,0.049,0.097,0.049,0.097c0.033,0.081,0.038,0.096,0.038,0.096c0.025,0.085,0.029,0.099,0.029,0.099 c0.017,0.085,0.019,0.099,0.019,0.099c0.009,0.085,0.01,0.099,0.01,0.099c0.003,0.085,0.003,0.099,0.003,0.099 c-0.002,0.084-0.004,0.112-0.004,0.112c-0.014,0.199-0.07,0.466-0.092,0.606c-0.012,0.08-0.015,0.107-0.015,0.107 c-0.009,0.08-0.011,0.106-0.011,0.106c-0.004,0.092-0.004,0.105-0.004,0.105c0.003,0.09,0.004,0.103,0.004,0.103 c0.012,0.089,0.014,0.102,0.014,0.102c0.022,0.089,0.024,0.097,0.024,0.097c0.034,0.092,0.041,0.108,0.041,0.108 c0.045,0.091,0.054,0.106,0.054,0.106c0.055,0.09,0.065,0.105,0.065,0.105c0.064,0.089,0.086,0.119,0.086,0.119 c0.251,0.314,0.545,0.571,0.789,0.833c0.085,0.093,0.113,0.125,0.113,0.125c0.081,0.095,0.107,0.127,0.107,0.127 c0.05,0.065,0.075,0.097,0.075,0.097c0.058,0.083,0.069,0.099,0.069,0.099c0.052,0.084,0.062,0.102,0.062,0.102 c0.046,0.086,0.055,0.104,0.055,0.104c0.037,0.082,0.046,0.103,0.046,0.103c0.031,0.084,0.038,0.106,0.038,0.106 c0.026,0.086,0.032,0.108,0.032,0.108c0.021,0.088,0.025,0.11,0.025,0.11c0.016,0.089,0.02,0.112,0.02,0.112 c0.009,0.068,0.015,0.114,0.015,0.114c0.009,0.092,0.012,0.139,0.012,0.139c0.022,0.339,0,0.761-0.004,1.089 c-0.005,0.305,0.017,0.689,0.071,0.953c0.017,0.081,0.023,0.108,0.023,0.108c0.02,0.081,0.027,0.108,0.027,0.108 c0.441,1.449,1.709,2.587,2.365,3.905c0.325,0.613,0.483,1.263,0.473,1.883c-0.006,0.786-0.263,1.527-0.589,2.152 c-0.872,1.61-2.177,2.777-3.612,3.849c-2.554,1.852-5.491,3.168-8.513,4.049c-0.588,1.875-0.426,3.841-0.006,5.732 c0.395,1.674,1.027,4.976,1.585,6.565c0.352,1.044,0.821,2.059,1.423,2.982c3.074-0.144,6.206-0.611,9.225-1.202 c2.917-0.597,5.844-1.399,8.544-2.67c3.091-1.412,6-3.992,8.649-6.1c1.539-1.21,3.173-2.373,4.912-3.275 c2.048-1.066,4.289-1.85,6.486-2.551c2.77-0.878,7.298-2.074,9.895-3.27c1.207-0.546,2.347-1.265,3.409-2.054 c0.91-0.671,2.112-1.666,3.1-2.153c0.784-0.393,1.616-0.606,2.408-0.599c0.13,0.158,1.566-1.298,1.627-1.313 c4.095-3.743,8.081-7.764,11.071-12.466c2.1-3.281,4.795-7.782,7.295-10.717c2.504-3.015,5.498-5.743,8.444-8.321 c5.077-4.353,13.482-11.13,17.98-15.894c3.472-3.569,6.809-7.569,9.857-11.51c1.44-1.913,3.494-4.485,4.732-6.494 c0.976-1.558,1.813-3.235,2.267-5.023c0.518-2.023,0.581-4.434,0.847-6.503c0.237-1.952,0.669-3.905,1.44-5.719 c0.666-1.581,1.579-3.068,2.558-4.474c1.56-2.228,3.408-4.383,5.225-6.408c2.325-2.584,6.788-7.12,8.792-9.855 c1.199-1.588,2.365-3.751,4.099-4.765c1.013-0.617,2.161-0.998,3.32-1.23c3.055-0.603,6.439-0.153,8.954,1.777 c0.925,0.696,1.775,1.667,2.249,2.684c0.495,1.012,0.629,2.163,0.479,3.202c-0.188,1.344-0.657,2.483-1.216,3.684 c-0.757,1.649-2.279,4.151-3.164,5.762c-2.962,5.274-5.027,11.58-6.967,17.315c-0.984,2.832-2.003,5.761-3.631,8.294 c-0.823,1.296-1.882,2.435-3.058,3.419c-2.121,1.768-4.68,3.424-6.57,5.449c-3.283,3.467-5.803,7.737-8.233,11.826 c-5.423,9.294-11.509,20.826-18.282,29.136c-3.14,3.94-7.693,7.709-11.48,11.037c-4.561,3.943-9.833,10.882-13.718,15.564 c-5.362,6.499-11.69,12.724-17.763,18.572c-0.072,2.631,0.195,5.698,0.226,8.332c-0.007,1.236-0.107,2.632-0.734,3.699 c-0.051,0.085-0.078,0.127-0.078,0.127c-0.054,0.083-0.082,0.125-0.082,0.125c-0.6,0.852-1.379,1.396-2.173,1.908 c-0.715,0.439-2.276,1.341-3.003,1.773c-1.552,0.934-3.037,2.044-4.409,3.226c-1.904,1.646-3.686,3.486-5.227,5.478 c-1.042,1.357-1.992,2.81-2.704,4.368c-0.695,1.508-1.16,3.126-1.449,4.759c-0.201,1.118-0.332,2.322-0.431,3.456 c-0.569,7.455-0.847,16.964-0.996,24.466c-0.19,21.7-0.016,44.131,3.455,65.582c0.823,4.85,1.988,9.898,3.326,14.634 c1.386,5.152,4.542,13.957,6.247,19.033c0.562,1.741,1.105,3.543,1.338,5.36c0.228,1.689,0.108,3.569-0.676,5.038 c-0.775,1.474-1.991,2.501-3.338,3.381c1.076,8.587,1.429,18.52,1.695,27.2l0.834,57.649c0.006,0.513,0.034,2.435,0.027,2.905 c-0.007,0.693-0.028,1.465-0.092,2.153c-0.1,1.122-0.347,2.358-0.94,3.307c-0.06,0.095-0.091,0.142-0.091,0.142 c-0.063,0.093-0.096,0.139-0.096,0.139c-0.067,0.091-0.101,0.135-0.101,0.135c-0.07,0.088-0.106,0.132-0.106,0.132 c-0.924,1.07-2.058,1.604-3.327,2.069c-1.677,0.586-3.472,0.9-5.226,1.157c-0.536,2.978-1.238,6.002-2.234,8.861 c-0.791,2.277-1.818,4.503-3.216,6.474l-2.399,3.319c-0.912,1.309-1.724,2.712-2.308,4.199c-0.829,2.112-1.285,4.383-1.64,6.619 c-0.808,4.994-0.996,11.933-1.472,16.997c-0.097,0.869-0.226,1.76-0.463,2.602c0.524,1.193,1.225,2.553,1.414,3.834 c0.172,1.044,0.142,1.95,0.068,2.971c-0.124,1.555-0.407,3.191-0.69,4.727c-1.023,5.075-2.605,12.555-3.154,17.63 c-0.682,5.865-1.803,17.013-2.804,22.661c-0.804,4.856-2.004,9.953-3.271,14.712c-2.155,8.192-6.133,20.63-8,28.853 c-0.898,3.967-1.501,8.161-1.868,12.212l-0.574,6.92c1.067,0.375,1.919,1.128,2.633,1.874c0.763,0.808,1.445,1.723,2.073,2.639 c2.28,3.296,4.048,7.376,7.22,9.945c1.267,1.031,2.73,1.814,4.254,2.393c4.233,1.595,8.992,1.791,13.405,2.623 c1.848,0.362,3.967,0.855,5.308,2.236c0.799,0.837,1.171,1.742,1.455,2.796c0.316,1.242,0.428,2.538,0.376,3.818 c-0.049,1.079-0.229,2.259-0.702,3.224c-0.047,0.091-0.071,0.135-0.071,0.135c-0.049,0.087-0.074,0.129-0.074,0.129 c-0.051,0.083-0.078,0.123-0.078,0.123c-0.054,0.079-0.081,0.117-0.081,0.117c-0.056,0.075-0.084,0.112-0.084,0.112 c-0.058,0.071-0.088,0.106-0.088,0.106c-0.061,0.068-0.091,0.101-0.091,0.101c-0.063,0.064-0.095,0.095-0.095,0.095 c-0.065,0.061-0.098,0.09-0.098,0.09c-0.067,0.057-0.102,0.085-0.102,0.085c-0.07,0.054-0.105,0.081-0.105,0.081 c-0.072,0.051-0.109,0.076-0.109,0.076c-0.074,0.048-0.112,0.071-0.112,0.071c-0.076,0.045-0.115,0.067-0.115,0.067 c-0.079,0.042-0.119,0.063-0.119,0.063c-0.081,0.039-0.122,0.059-0.122,0.059c-0.083,0.037-0.125,0.055-0.125,0.055 c-0.73,0.29-1.355,0.361-2.103,0.424c-9.971,0.143-48.273,0.012-57.602,0.053c-0.314-0.004-0.727-0.025-1-0.079 c-0.082-0.016-0.108-0.022-0.108-0.022c-0.079-0.019-0.105-0.026-0.105-0.026c-0.077-0.022-0.102-0.03-0.102-0.03 c-0.074-0.025-0.099-0.034-0.099-0.034c-0.072-0.029-0.095-0.039-0.095-0.039c-0.093-0.043-0.115-0.055-0.115-0.055 c-0.089-0.05-0.111-0.063-0.111-0.063c-0.086-0.057-0.107-0.072-0.107-0.072c-0.082-0.064-0.103-0.081-0.103-0.081 c-0.079-0.072-0.099-0.091-0.099-0.091c-0.077-0.08-0.095-0.101-0.095-0.101c-0.074-0.089-0.092-0.112-0.092-0.112 c-0.054-0.073-0.071-0.098-0.071-0.098c-0.052-0.078-0.069-0.105-0.069-0.105c-0.051-0.084-0.068-0.113-0.068-0.113 c-0.383-0.706-0.534-1.35-0.704-2.072c-0.2-0.913-0.33-1.862-0.423-2.792c-0.42-4.392-0.068-8.878,0.486-13.244 c0.198-1.439,0.419-3.025,0.743-4.438c0.183-0.791,0.429-1.673,0.785-2.389c0.103-0.206,0.194-0.356,0.271-0.473 c0.048-0.07,0.072-0.105,0.072-0.105c0.049-0.067,0.074-0.099,0.074-0.099c0.076-0.093,0.102-0.123,0.102-0.123 c0.079-0.085,0.106-0.112,0.106-0.112c0.082-0.077,0.096-0.089,0.096-0.089c0.084-0.07,0.099-0.081,0.099-0.081 c0.087-0.063,0.102-0.072,0.102-0.072c0.09-0.055,0.105-0.064,0.105-0.064c0.086-0.045,0.101-0.052,0.101-0.052 c0.089-0.038,0.104-0.044,0.104-0.044c0.091-0.032,0.106-0.037,0.106-0.037c0.093-0.026,0.109-0.03,0.109-0.03 c0.063-0.014,0.095-0.02,0.095-0.02c0.065-0.011,0.097-0.016,0.097-0.016c0.066-0.008,0.099-0.011,0.099-0.011 c0.067-0.005,0.101-0.007,0.101-0.007c0.068-0.002,0.102-0.002,0.102-0.002c0.069,0.001,0.104,0.002,0.104,0.002l1.393-35.688 l0.123-5.877l0.019-32.868c0.131-9.61,0.854-19.414,2.527-28.883c0.772-4.31,1.684-8.755,3.043-12.918 c0.475-1.412,1.007-2.844,1.763-4.132c0.644-1.141,1.688-2.286,2.501-3.312c-0.219-1.167-0.315-2.389-0.363-3.576 c-0.144-4.488,0.298-10.317,0.326-14.82c0.056-6.782-0.086-18.222,0.434-24.857c-2.864,0.087-5.997-0.047-8.866-0.196 c-0.774,4.206-4.267,22.392-4.871,26.214c-0.568,3.514-1.357,9.683-1.965,13.166c-0.45,2.457-0.904,5.009-1.85,7.329l0.241,1.349 c0.146,0.856,0.209,1.829,0.11,2.678c-0.145,1.282-0.535,2.473-0.936,3.685c-0.729,2.12-1.848,4.914-2.274,7.074 c-0.292,1.427-0.374,2.916-0.373,4.37c0.232,12.644,1.159,26.018-0.447,38.587c-0.675,5.253-2.124,12.225-2.852,17.476 c-1.232,9.087-2.068,18.556-2.032,27.727c0.019,4.447,0.464,9.216,0.972,13.641c1.354,2.041,2.19,4.394,2.894,6.726 c0.944,3.214,1.708,6.568,2.327,9.86c0.451,2.496,0.868,5.089,0.98,7.625c0.036,1.001,0.022,2.026-0.14,3.016 c-0.134,0.863-0.461,1.848-0.996,2.486c-0.077,0.092-0.104,0.122-0.104,0.122c-0.08,0.087-0.107,0.115-0.107,0.115 c-0.083,0.082-0.111,0.108-0.111,0.108c-0.086,0.077-0.115,0.102-0.115,0.102c-0.088,0.073-0.118,0.096-0.118,0.096 c-0.091,0.068-0.122,0.091-0.122,0.091c-0.778,0.556-1.684,0.74-2.542,0.843c-2.644,0.265-16.465,0.081-19.33,0.118 c-1.995-0.058-4.272-0.111-5.929-1.335c-0.094-0.072-0.141-0.109-0.141-0.109c-0.092-0.076-0.137-0.115-0.137-0.115 c-0.089-0.08-0.133-0.121-0.133-0.121c-0.087-0.084-0.13-0.127-0.13-0.127c-0.084-0.088-0.126-0.133-0.126-0.133 c-0.792-0.89-1.212-1.873-1.549-2.967c-0.366-1.237-0.539-2.533-0.603-3.819c-0.147-3.132,0.365-6.279,1.207-9.289 c1.013-3.594,2.531-7.065,4.473-10.254l-0.916-8.672c-1.562-13.107-7.018-45.356-8.698-58.58c-0.454-3.67-0.843-7.643-1.06-11.334 c-0.586-10.153-0.084-20.573,0.895-30.692c0.362-3.424,0.795-7.381,1.412-10.755c0.282-1.51,0.611-3.077,1.096-4.535 c0.237-0.712,0.551-1.492,0.942-2.115c0.553-0.913,1.334-1.515,2.068-2.184c-0.186-1.253-0.241-2.559-0.251-3.825 c0.177-10.195,0.028-27.758,0.273-37.939c-0.398-0.187-0.936-0.525-1.24-0.772c-1.101-0.875-1.778-1.966-2.325-3.19 c-0.621-1.417-1.005-2.949-1.31-4.463c-0.833-4.385-1.189-9.112-1.509-13.565c-1.272-21.354-0.916-43.158,1.929-64.375 c-0.94-0.633-1.626-1.464-1.927-2.479c-0.469-1.638-0.176-3.258,0.082-4.887c0.588-2.945,1.206-6.554,1.587-9.488 c1.226-9.588,2.532-22.452,4.619-31.745c1.849-8.694,4.827-18.211,4.52-27.155c-0.255-9.976-4.778-19.291-9.981-27.603 c-3.148-4.949-6.75-9.709-10.625-14.112c-3.554-4.029-7.595-7.84-12.565-10.034c-8.009-3.639-17.501-2.53-25.931-4.355 c-0.916-0.22-1.839-0.501-2.69-0.912c-0.876-0.424-1.612-0.978-2.229-1.627C303.726,252.569,302.985,250.95,302.087,249.503z"/>
    </g>
  </g>
</svg>